<?xml version="1.0" standalone="no"?>
<!DOCTYPE svg PUBLIC "-//W3C//DTD SVG 20010904//EN"
 "http://www.w3.org/TR/2001/REC-SVG-20010904/DTD/svg10.dtd">
<svg version="1.0" xmlns="http://www.w3.org/2000/svg"
 width="931.000000pt" height="720.000000pt" viewBox="0 0 931.000000 720.000000"
 preserveAspectRatio="xMidYMid meet">
<metadata>
Created by potrace 1.16, written by Peter Selinger 2001-2019
</metadata>
<g transform="translate(0.000000,720.000000) scale(0.100000,-0.100000)"
fill="#000000" stroke="none">
<path d="M3329 2676 c-61 -21 -96 -54 -126 -113 -23 -49 -27 -69 -27 -142 0
-73 4 -94 27 -137 45 -89 106 -124 215 -124 137 0 221 90 230 245 5 102 -20
177 -77 228 -58 52 -164 71 -242 43z m166 -100 c61 -40 74 -211 21 -280 -49
-65 -139 -72 -195 -15 -70 70 -66 228 7 293 41 36 113 37 167 2z"/>
<path d="M5125 2661 c-88 -39 -130 -131 -123 -265 9 -156 85 -236 226 -236 79
0 147 41 183 112 30 59 26 68 -31 68 -38 0 -50 -4 -50 -15 0 -8 -13 -29 -29
-47 -25 -28 -36 -33 -74 -33 -52 0 -90 28 -113 82 -16 38 -18 123 -4 175 14
49 71 98 113 98 42 0 95 -33 103 -65 6 -22 11 -25 55 -25 43 0 49 3 49 20 0
49 -50 108 -112 135 -51 21 -143 19 -193 -4z"/>
<path d="M2630 2420 l0 -250 48 0 47 0 -3 212 c-2 118 1 208 6 203 4 -6 28
-98 51 -205 24 -107 46 -199 51 -203 4 -5 27 -7 50 -5 l43 3 46 205 46 205 3
-208 2 -208 48 3 47 3 3 248 3 247 -75 0 c-62 0 -76 -3 -80 -17 -3 -10 -21
-88 -41 -173 -19 -85 -37 -166 -40 -179 -4 -13 -8 -21 -10 -19 -3 3 -23 83
-45 179 -22 96 -43 182 -46 192 -4 14 -18 17 -80 17 l-74 0 0 -250z"/>
<path d="M3710 2420 l0 -250 45 0 45 0 2 182 3 183 104 -183 104 -182 48 0 49
0 0 250 0 250 -45 0 -45 0 -2 -175 -3 -175 -99 175 -99 175 -53 0 -54 0 0
-250z"/>
<path d="M4150 2630 l0 -40 75 0 75 0 0 -210 0 -210 50 0 50 0 0 210 0 210 75
0 75 0 0 40 0 40 -200 0 -200 0 0 -40z"/>
<path d="M4596 2428 c-47 -134 -86 -246 -86 -250 0 -5 22 -8 49 -8 l50 0 17
55 18 56 95 -3 94 -3 17 -50 17 -50 51 -3 c29 -2 52 1 52 6 0 7 -94 277 -162
465 -9 25 -14 27 -68 27 l-57 0 -87 -242z"/>
<path d="M5500 2420 l0 -250 50 0 50 0 0 115 0 115 100 0 100 0 0 -115 0 -115
50 0 50 0 0 250 0 250 -50 0 -50 0 0 -95 0 -95 -100 0 -100 0 0 95 0 95 -50 0
-50 0 0 -250z"/>
<path d="M5980 2420 l0 -250 190 0 190 0 0 45 0 45 -140 0 -140 0 0 65 0 65
120 0 120 0 0 46 0 45 -102 -1 c-57 -1 -111 -1 -120 -1 -15 1 -18 11 -18 56
l0 55 135 0 135 0 0 40 0 40 -185 0 -185 0 0 -250z"/>
<path d="M6420 2420 l0 -250 45 0 45 0 2 213 3 212 43 -195 c24 -107 46 -203
48 -212 4 -14 16 -18 53 -18 l48 0 37 168 c65 289 64 288 65 45 l1 -213 45 0
45 0 0 250 0 250 -74 0 -73 0 -44 -195 c-24 -107 -46 -195 -49 -195 -3 0 -25
88 -49 195 l-45 195 -73 0 -73 0 0 -250z"/>
<path d="M5695 2091 c-63 -26 -82 -116 -36 -165 19 -20 34 -26 68 -26 68 0
103 49 89 125 -10 51 -74 86 -121 66z"/>
<path d="M2890 1995 c0 -76 3 -95 15 -95 11 0 15 16 17 68 l3 67 43 -67 c29
-47 49 -68 62 -68 19 0 20 7 20 95 0 78 -3 95 -15 95 -12 0 -15 -14 -15 -65 0
-36 -3 -65 -7 -65 -5 0 -25 30 -47 65 -25 43 -44 65 -57 65 -17 0 -19 -8 -19
-95z"/>
<path d="M3960 1995 c0 -84 2 -95 18 -95 13 0 17 8 17 38 0 31 4 38 22 40 36
5 63 -15 63 -48 0 -24 4 -30 21 -30 18 0 20 4 14 33 -4 17 -11 36 -15 40 -4 5
-1 21 8 37 15 25 15 30 -1 54 -16 24 -23 26 -82 26 l-65 0 0 -95z"/>
<path d="M4330 1995 c0 -78 3 -95 15 -95 12 0 15 13 15 58 0 32 3 62 7 65 3 4
24 -22 45 -58 27 -44 45 -65 59 -65 17 0 19 8 19 95 0 76 -3 95 -15 95 -11 0
-15 -16 -17 -67 l-3 -68 -44 68 c-28 44 -50 67 -62 67 -17 0 -19 -9 -19 -95z"/>
<path d="M4752 2063 c-5 -15 -21 -58 -35 -95 -25 -64 -25 -68 -7 -68 10 0 22
9 25 20 5 16 15 20 47 20 31 0 41 -4 45 -20 5 -18 44 -30 42 -12 0 4 -15 45
-32 92 -25 66 -37 86 -54 88 -15 2 -23 -4 -31 -25z"/>
<path d="M6030 1995 c0 -78 3 -95 15 -95 12 0 15 14 15 65 0 36 3 65 8 65 4
-1 23 -29 43 -63 24 -41 44 -63 58 -65 20 -3 21 0 21 92 0 77 -3 96 -15 96
-11 0 -15 -16 -17 -67 l-3 -68 -44 68 c-28 44 -50 67 -62 67 -17 0 -19 -9 -19
-95z"/>
<path d="M6452 2063 c-6 -15 -22 -58 -36 -95 -25 -65 -25 -68 -7 -68 11 0 23
9 26 20 5 16 15 20 47 20 31 0 41 -4 45 -20 5 -18 44 -30 42 -12 0 4 -15 45
-32 92 -25 66 -37 86 -54 88 -15 2 -23 -4 -31 -25z"/>
</g>
</svg>
